<svg width="39" height="49" viewBox="0 0 39 49" fill="none" xmlns="http://www.w3.org/2000/svg">
<path d="M15.8884 13.0285L16.596 5.7165C16.7477 4.14964 17.7373 2.78831 19.1809 2.16065C21.728 1.05321 24.6446 2.59478 25.1643 5.32317L26.6925 13.3462" stroke="#DF6C58" stroke-width="3"/>
<path d="M12.0752 13.0285L12.7828 5.7165C12.9344 4.14964 13.924 2.78831 15.3677 2.16065C17.9148 1.05321 20.8314 2.59478 21.3511 5.32317L22.8793 13.3462" stroke="#DF6C58" stroke-width="3"/>
<path d="M36.2255 12.3929L1.9066 12.0752L0 44.1697L30.1879 48.6184L38.1321 43.5341L36.2255 12.3929Z" fill="url(#paint0_linear_303_4)"/>
<path fill-rule="evenodd" clip-rule="evenodd" d="M21.0558 21.958C20.0781 21.6278 18.355 21.1053 16.995 20.8091C16.928 20.7962 16.4927 20.7336 16.4927 21.2987L16.5239 26.0569L16.5175 27.9635H16.5239V35.3549L19.7016 36.2255V36.0243V34.5197V33.2893V31.7475L19.7016 27.9635L19.7016 24.1503C19.7016 23.5766 20.0615 23.1594 20.4761 23.2923C21.0163 23.4426 21.1219 23.9728 21.1219 24.5474V29.1594C21.1219 29.4322 21.3179 29.5377 21.3451 29.5511C23.303 30.3725 24.8112 29.3544 24.8112 26.819C24.8113 24.1179 23.8609 22.9186 21.0558 21.958ZM20.3371 31.09V33.0653L23.3594 32.0001C23.9637 31.7842 24.852 31.7365 25.343 31.8982C25.8336 32.0581 25.742 32.3656 25.1366 32.5822L24.9051 32.6647L24.9049 32.6647L20.3371 34.2915V36.2077L22.8688 35.2982C23.7703 34.9743 24.4842 34.7187 25.053 34.5149L25.0533 34.5148C25.9033 34.2104 26.4293 34.022 26.7733 33.8955L27.0484 33.7967C27.0484 33.7967 27.1407 33.7627 27.2801 33.701C27.3674 33.6646 27.4297 33.6353 27.4912 33.6041C27.5316 33.5836 27.5717 33.5622 27.6182 33.5374C27.9031 33.3867 28.227 33.179 28.4182 32.9381C28.8151 32.4372 28.639 31.7104 27.0775 31.2164C25.6897 30.6911 23.9236 30.5102 22.4811 30.6688C21.5228 30.7751 20.7484 30.9708 20.3371 31.09ZM15.8884 34.5089V32.9085L14.855 33.2857C14.25 33.5026 13.3612 33.5472 12.8701 33.3868C12.3792 33.227 12.4713 32.9207 13.0766 32.7028L13.8349 32.4312L13.8353 32.4313L15.8884 31.697V29.7711C15.2479 29.9982 14.6837 30.1972 14.185 30.3731L14.1842 30.3734L14.1839 30.3735L14.1822 30.3741L14.1819 30.3742L14.1813 30.3744L14.1811 30.3745C13.1958 30.7221 12.4664 30.9795 11.9089 31.1846C11.4218 31.3584 11.3013 31.4039 11.1826 31.4538L11.1627 31.4623L11.1236 31.4786C11.0926 31.4917 11.0618 31.5051 11.0267 31.5203L11.0265 31.5204L11.0004 31.5317L11.0061 31.5335C10.492 31.7477 10.2065 31.909 9.91878 32.122C9.18864 32.664 9.45564 33.6041 11.0592 34.0563C12.684 34.5917 14.3306 34.7204 15.8884 34.5089Z" fill="white"/>
<defs>
<linearGradient id="paint0_linear_303_4" x1="3.6083e-07" y1="8.89749" x2="34.0011" y2="47.3473" gradientUnits="userSpaceOnUse">
<stop stop-color="#11D1FD"/>
<stop offset="1" stop-color="#0A81C4"/>
</linearGradient>
</defs>
</svg>
