<svg width="376" height="151" viewBox="0 0 376 151" fill="none" xmlns="http://www.w3.org/2000/svg">
<path d="M0 0H36.9894V140.143C36.9894 145.666 32.5123 150.143 26.9894 150.143H0V0Z" fill="#034D7C"/>
<path d="M37 0.142578H81C92.0457 0.142578 101 9.09688 101 20.1426V31.1426H37V0.142578Z" fill="#034D7C"/>
<path d="M37 31.1426H101V61.1426C101 72.1883 92.0457 81.1426 81 81.1426H37V31.1426Z" fill="#EAEAEA"/>
<path d="M54 46.1426H101V61.1426C101 72.1883 92.0457 81.1426 81 81.1426H54V46.1426Z" fill="#EDAE14"/>
<path d="M257.994 70.1545C260.075 65.9535 258.363 60.7761 253.853 59.4978C248.559 57.9973 243.016 57.4484 237.487 57.9011C229.123 58.5856 221.104 61.5354 214.29 66.4335C207.476 71.3317 202.125 77.9933 198.812 85.703C195.498 93.4127 194.347 101.879 195.482 110.194C196.617 118.508 199.996 126.357 205.254 132.896C210.513 139.436 217.454 144.419 225.331 147.312C233.209 150.204 241.725 150.896 249.966 149.314C255.415 148.268 260.607 146.254 265.306 143.389C269.308 140.948 269.57 135.502 266.439 132.012V132.012C263.308 128.523 257.962 128.372 253.722 130.372C251.517 131.412 249.181 132.177 246.765 132.641C241.553 133.642 236.166 133.204 231.183 131.374C226.201 129.545 221.811 126.393 218.485 122.257C215.159 118.12 213.022 113.156 212.304 107.897C211.586 102.638 212.314 97.2833 214.41 92.4069C216.506 87.5305 219.89 83.317 224.2 80.2189C228.51 77.1209 233.582 75.2551 238.872 74.8221C241.324 74.6215 243.779 74.7321 246.182 75.1431C250.803 75.9336 255.913 74.3556 257.994 70.1545V70.1545Z" fill="#034D7C"/>
<rect x="123.177" y="59.0312" width="15.3993" height="91.1125" rx="7.69965" fill="#034D7C"/>
<rect x="202.573" y="140.098" width="15.3624" height="109.176" rx="7.68121" transform="rotate(140 202.573 140.098)" fill="#034D7C"/>
<rect x="138.596" y="114.212" width="17.9658" height="8.98292" fill="#034D7C"/>
<rect x="319.535" y="79.5625" width="16.6826" height="70.5801" fill="#034D7C"/>
<path d="M278.471 61.5967H376V64.4294C376 69.9523 371.522 74.4294 366 74.4294H278.471V61.5967Z" fill="#034D7C"/>
</svg>
