<svg width="40" height="40" viewBox="0 0 40 40" fill="none" xmlns="http://www.w3.org/2000/svg">
<path d="M35 26.6667H11.6667C11.2246 26.6667 10.8007 26.4911 10.4882 26.1785C10.1756 25.866 10 25.442 10 25C10 24.558 10.1756 24.1341 10.4882 23.8215C10.8007 23.5089 11.2246 23.3333 11.6667 23.3333H29.0667C30.1811 23.3334 31.2636 22.9612 32.1423 22.2757C33.021 21.5903 33.6455 20.6309 33.9167 19.55L36.6667 8.73334C36.7291 8.48736 36.7345 8.23036 36.6825 7.98196C36.6305 7.73356 36.5225 7.50032 36.3667 7.30001C36.2046 7.09456 35.9964 6.93017 35.759 6.82014C35.5215 6.71011 35.2615 6.65754 35 6.66668H11.2667C10.9228 5.69409 10.2865 4.85167 9.4451 4.25491C8.60366 3.65814 7.59824 3.33624 6.56666 3.33334H4.99999C4.55797 3.33334 4.13404 3.50894 3.82148 3.8215C3.50892 4.13406 3.33333 4.55798 3.33333 5.00001C3.33333 5.44204 3.50892 5.86596 3.82148 6.17852C4.13404 6.49108 4.55797 6.66668 4.99999 6.66668H6.56666C6.94739 6.65558 7.32042 6.77523 7.62367 7.0057C7.92692 7.23617 8.14208 7.56355 8.23333 7.93334L8.33333 8.73334L11.2167 20C9.89058 20.0597 8.64251 20.6437 7.74703 21.6236C6.85154 22.6035 6.38199 23.8989 6.44166 25.225C6.50134 26.5511 7.08535 27.7992 8.06523 28.6946C9.0451 29.5901 10.3406 30.0597 11.6667 30H11.9667C11.6926 30.7552 11.6045 31.5654 11.7099 32.3619C11.8153 33.1583 12.1111 33.9177 12.5722 34.5756C13.0333 35.2335 13.6462 35.7706 14.3589 36.1415C15.0716 36.5123 15.8632 36.7059 16.6667 36.7059C17.4701 36.7059 18.2617 36.5123 18.9744 36.1415C19.6871 35.7706 20.3 35.2335 20.7611 34.5756C21.2223 33.9177 21.518 33.1583 21.6234 32.3619C21.7289 31.5654 21.6408 30.7552 21.3667 30H25.3C25.0259 30.7552 24.9378 31.5654 25.0432 32.3619C25.1486 33.1583 25.4444 33.9177 25.9055 34.5756C26.3666 35.2335 26.9795 35.7706 27.6923 36.1415C28.405 36.5123 29.1966 36.7059 30 36.7059C30.8034 36.7059 31.595 36.5123 32.3077 36.1415C33.0205 35.7706 33.6333 35.2335 34.0945 34.5756C34.5556 33.9177 34.8514 33.1583 34.9568 32.3619C35.0622 31.5654 34.9741 30.7552 34.7 30H35C35.442 30 35.8659 29.8244 36.1785 29.5119C36.4911 29.1993 36.6667 28.7754 36.6667 28.3333C36.6667 27.8913 36.4911 27.4674 36.1785 27.1548C35.8659 26.8423 35.442 26.6667 35 26.6667ZM32.8667 10L30.6833 18.7333C30.5921 19.1031 30.3769 19.4305 30.0737 19.661C29.7704 19.8915 29.3974 20.0111 29.0167 20H14.6333L12.1333 10H32.8667ZM16.6667 33.3333C16.337 33.3333 16.0148 33.2356 15.7407 33.0525C15.4666 32.8693 15.253 32.609 15.1269 32.3045C15.0007 31.9999 14.9677 31.6648 15.032 31.3415C15.0963 31.0182 15.2551 30.7213 15.4882 30.4882C15.7212 30.2551 16.0182 30.0963 16.3415 30.032C16.6648 29.9677 16.9999 30.0007 17.3045 30.1269C17.609 30.253 17.8693 30.4666 18.0524 30.7407C18.2356 31.0148 18.3333 31.337 18.3333 31.6667C18.3333 32.1087 18.1577 32.5326 17.8452 32.8452C17.5326 33.1578 17.1087 33.3333 16.6667 33.3333ZM30 33.3333C29.6704 33.3333 29.3481 33.2356 29.074 33.0525C28.8 32.8693 28.5863 32.609 28.4602 32.3045C28.3341 31.9999 28.301 31.6648 28.3654 31.3415C28.4297 31.0182 28.5884 30.7213 28.8215 30.4882C29.0546 30.2551 29.3515 30.0963 29.6748 30.032C29.9981 29.9677 30.3333 30.0007 30.6378 30.1269C30.9423 30.253 31.2026 30.4666 31.3858 30.7407C31.5689 31.0148 31.6667 31.337 31.6667 31.6667C31.6667 32.1087 31.4911 32.5326 31.1785 32.8452C30.8659 33.1578 30.442 33.3333 30 33.3333Z" fill="white"/>
</svg>
