<svg width="33" height="24" viewBox="0 0 33 24" fill="none" xmlns="http://www.w3.org/2000/svg">
<path fill-rule="evenodd" clip-rule="evenodd" d="M11.9229 16.0429H16.8857H16.8857H21.0771L24.2537 21.3374C25.1556 22.8404 26.8177 23.7181 28.5676 23.6152C31.2755 23.4559 33.2891 21.0473 32.9659 18.354L31.5724 6.74112C31.2777 4.28543 29.8643 2.10392 27.7434 0.831415C25.8101 -0.328569 23.3815 -0.270777 21.5055 0.979852L19.7375 2.15852H16.8857H16.8857H13.2625L11.4945 0.979852C9.61851 -0.270777 7.18988 -0.328569 5.25658 0.831415C3.13573 2.10392 1.72231 4.28543 1.42763 6.74112L0.0340896 18.354C-0.289107 21.0473 1.72447 23.4559 4.43242 23.6152C6.18227 23.7181 7.84443 22.8404 8.74628 21.3374L11.9229 16.0429Z" fill="white"/>
</svg>
