<svg width="40" height="35" viewBox="0 0 40 35" fill="none" xmlns="http://www.w3.org/2000/svg">
<path d="M36.3532 3.70778C34.2326 1.61068 31.4216 0.330732 28.4279 0.0991369C25.4342 -0.132458 22.4552 0.699574 20.0291 2.44494C17.4837 0.577574 14.3156 -0.269178 11.1627 0.0751967C8.00972 0.419572 5.10617 1.92949 3.03671 4.3009C0.967248 6.6723 -0.114396 9.72904 0.00959325 12.8556C0.133582 15.9821 1.45399 18.9462 3.70493 21.1509L16.1281 33.4242C17.1684 34.434 18.5695 35 20.0291 35C21.4887 35 22.8898 34.434 23.9301 33.4242L36.3532 21.1509C38.689 18.8329 40 15.6975 40 12.4293C40 9.16117 38.689 6.02577 36.3532 3.70778ZM33.5325 18.4279L21.1094 30.6814C20.968 30.8222 20.7997 30.934 20.6143 31.0103C20.4289 31.0865 20.23 31.1258 20.0291 31.1258C19.8282 31.1258 19.6293 31.0865 19.4438 31.0103C19.2584 30.934 19.0902 30.8222 18.9488 30.6814L6.52565 18.3687C4.95676 16.7868 4.07825 14.6619 4.07825 12.4491C4.07825 10.2362 4.95676 8.11129 6.52565 6.52946C8.12436 4.97258 10.2805 4.0996 12.5272 4.0996C14.7738 4.0996 16.93 4.97258 18.5287 6.52946C18.7147 6.71441 18.9359 6.8612 19.1797 6.96138C19.4235 7.06155 19.685 7.11313 19.9491 7.11313C20.2132 7.11313 20.4746 7.06155 20.7184 6.96138C20.9622 6.8612 21.1834 6.71441 21.3694 6.52946C22.9681 4.97258 25.1243 4.0996 27.3709 4.0996C29.6176 4.0996 31.7738 4.97258 33.3725 6.52946C34.9629 8.09056 35.8703 10.2039 35.9002 12.4169C35.9301 14.6298 35.0802 16.7663 33.5325 18.3687V18.4279Z" fill="white"/>
</svg>
